<svg xmlns="http://www.w3.org/2000/svg" width="180" height="180" style="width:100%;height:100%;transform:translate3d(0,0,0);content-visibility:visible"><defs><clipPath id="a"><path d="M0 0h180v180H0z"/></clipPath><mask id="b" mask-type="alpha"><path fill="#131022" d="M80.25-26.5C10.5 42.5.5-7-58.75 52.25h139V-26.5z" style="display:block" transform="translate(90 90)"/></mask></defs><g clip-path="url(#a)"><g style="display:block"><path fill="#575C7A" d="M173.661 146.364H28.267V62.862a3.049 3.049 0 0 1 3.049-3.048h139.298a3.048 3.048 0 0 1 3.047 3.048v83.502z"/><path fill="#FFF" d="M170.719 142.648H31.211V62.996h139.508v79.652z"/></g><g style="display:block"><path fill="#FFF" d="M172.632 157.218H29.296c-2.11 0-3.98-1.59-4.634-3.938l-.972-3.488c-.472-1.695.607-3.433 2.128-3.433H176.11c1.52 0 2.598 1.738 2.127 3.433l-.972 3.488c-.654 2.348-2.523 3.938-4.633 3.938z"/><path fill="#131021" d="m25.183 153.137-.972-3.489a2.436 2.436 0 0 1 .255-1.923c.322-.52.814-.826 1.353-.826H176.11c.538 0 1.03.306 1.353.826.323.52.449 1.223.254 1.923l-.97 3.489c-.604 2.163-2.294 3.542-4.114 3.542H29.296c-1.82 0-3.511-1.379-4.113-3.542zm153.056-3.344c.471-1.695-.608-3.434-2.129-3.434H25.819c-1.522 0-2.6 1.739-2.128 3.434l.971 3.488c.654 2.348 2.524 3.938 4.634 3.938h143.337c2.11 0 3.979-1.59 4.632-3.938l.974-3.488z"/></g><path fill="#131022" d="M80.25-26.5C10.5 42.5.5-7-58.75 52.25h139V-26.5z" style="display:block" transform="translate(90 90)"/><g style="display:block"><path fill="#575C7A" d="M36.694 134.192a3.284 3.284 0 0 0 3.284 3.285h33.658a3.285 3.285 0 0 0 3.284-3.285V71.435a3.285 3.285 0 0 0-3.284-3.285H39.978a3.284 3.284 0 0 0-3.284 3.285v62.757zm3.284 2.685a2.685 2.685 0 0 1-2.684-2.685V71.435a2.684 2.684 0 0 1 2.684-2.684h33.658a2.684 2.684 0 0 1 2.684 2.684v62.757a2.685 2.685 0 0 1-2.684 2.685H39.978zM80.865 134.192a3.284 3.284 0 0 0 3.284 3.285h33.658a3.284 3.284 0 0 0 3.284-3.285V71.435a3.284 3.284 0 0 0-3.284-3.285H84.149a3.284 3.284 0 0 0-3.284 3.285v62.757zm3.284 2.685a2.685 2.685 0 0 1-2.684-2.685V71.435a2.684 2.684 0 0 1 2.684-2.684h33.658a2.684 2.684 0 0 1 2.685 2.684v62.757a2.685 2.685 0 0 1-2.685 2.685H84.149zM125.037 97.561a3.285 3.285 0 0 0 3.285 3.285h33.657a3.284 3.284 0 0 0 3.284-3.285V71.438a3.283 3.283 0 0 0-3.284-3.284h-33.657a3.284 3.284 0 0 0-3.285 3.284v26.123zm3.285 2.684a2.685 2.685 0 0 1-2.686-2.684V71.438a2.685 2.685 0 0 1 2.686-2.683h33.657c1.483 0 2.685 1.2 2.685 2.683v26.123a2.684 2.684 0 0 1-2.685 2.684h-33.657zM125.037 134.193a3.285 3.285 0 0 0 3.285 3.285h33.657a3.284 3.284 0 0 0 3.284-3.285V108.07a3.283 3.283 0 0 0-3.284-3.284h-33.657a3.284 3.284 0 0 0-3.285 3.284v26.123zm3.285 2.684a2.685 2.685 0 0 1-2.686-2.684V108.07a2.685 2.685 0 0 1 2.686-2.683h33.657a2.684 2.684 0 0 1 2.685 2.683v26.123a2.684 2.684 0 0 1-2.685 2.684h-33.657z"/></g><g mask="url(#b)" style="display:block"><path fill="#FFF" d="M36.694 134.199a3.284 3.284 0 0 0 3.284 3.285h33.658a3.285 3.285 0 0 0 3.284-3.285V71.442a3.284 3.284 0 0 0-3.284-3.284H39.978a3.284 3.284 0 0 0-3.284 3.284v62.757zm3.284 2.684a2.684 2.684 0 0 1-2.684-2.684V71.442a2.683 2.683 0 0 1 2.684-2.683h33.658c1.482 0 2.684 1.2 2.684 2.683v62.757a2.684 2.684 0 0 1-2.684 2.684H39.978zM80.865 134.199a3.284 3.284 0 0 0 3.284 3.285h33.658a3.284 3.284 0 0 0 3.284-3.285V71.442a3.283 3.283 0 0 0-3.284-3.284H84.149a3.284 3.284 0 0 0-3.284 3.284v62.757zm3.284 2.684a2.684 2.684 0 0 1-2.684-2.684V71.442a2.683 2.683 0 0 1 2.684-2.683h33.658c1.483 0 2.685 1.2 2.685 2.683v62.757a2.684 2.684 0 0 1-2.685 2.684H84.149zM125.037 97.568a3.285 3.285 0 0 0 3.285 3.285h33.657a3.284 3.284 0 0 0 3.284-3.285V71.445a3.283 3.283 0 0 0-3.284-3.284h-33.657a3.284 3.284 0 0 0-3.285 3.284v26.123zm3.285 2.684a2.685 2.685 0 0 1-2.686-2.684V71.445a2.685 2.685 0 0 1 2.686-2.683h33.657c1.483 0 2.685 1.2 2.685 2.683v26.123a2.684 2.684 0 0 1-2.685 2.684h-33.657zM125.037 134.2a3.285 3.285 0 0 0 3.285 3.285h33.657a3.284 3.284 0 0 0 3.284-3.285v-26.122a3.284 3.284 0 0 0-3.284-3.285h-33.657a3.285 3.285 0 0 0-3.285 3.285V134.2zm3.285 2.684a2.685 2.685 0 0 1-2.686-2.684v-26.122a2.685 2.685 0 0 1 2.686-2.684h33.657a2.684 2.684 0 0 1 2.685 2.684V134.2a2.684 2.684 0 0 1-2.685 2.684h-33.657z"/></g><g style="display:block"><path fill="#E1E4F0" d="M28.057 72.679c15.136 0 27.406-12.252 27.406-27.366 0-15.113-12.27-27.364-27.406-27.364S.651 30.2.651 45.313c0 15.114 12.27 27.366 27.406 27.366z"/><path fill="#6266F0" d="M55.457 45.776c.002-.155.004-.31.004-.465-.002-15.118-12.265-27.362-27.406-27.362-.156 0-.31.001-.465.004a12.535 12.535 0 0 0-11.318 7.582 24.024 24.024 0 0 0 5.136 26.416 24.116 24.116 0 0 0 26.457 5.128 12.518 12.518 0 0 0 7.592-11.303z"/><path fill="#131021" d="M.649 45.016a.3.3 0 0 1 .3.3c0 14.947 12.136 27.065 27.106 27.065 14.971 0 27.106-12.118 27.106-27.065a.3.3 0 1 1 .6 0c0 15.279-12.404 27.664-27.706 27.664C12.754 72.98.349 60.595.349 45.316a.3.3 0 0 1 .3-.3z"/></g><g style="display:block"><path fill="#131021" d="M20.016 90.251a.3.3 0 0 1-.338.257l.041-.297-.041.297h-.003l-.006-.002-.023-.002-.085-.015a19.145 19.145 0 0 1-1.54-.339 30.393 30.393 0 0 1-4.283-1.493C10.213 87.14 5.56 84.438 1.03 79.693a.299.299 0 0 1 .01-.423.3.3 0 0 1 .424.009c4.466 4.677 9.048 7.337 12.511 8.826a29.731 29.731 0 0 0 4.199 1.465 18.583 18.583 0 0 0 1.485.328c.034.006.06.009.077.011l.019.004h.005a.3.3 0 0 1 .256.338zM17.578 84.962a.302.302 0 0 1-.373.205l.086-.289-.086.289-.002-.001-.003-.001-.017-.005-.058-.019c-.052-.017-.13-.04-.229-.074a21.588 21.588 0 0 1-.853-.307 32.92 32.92 0 0 1-3.021-1.338 38.823 38.823 0 0 1-9.018-6.266.299.299 0 0 1-.013-.423.299.299 0 0 1 .423-.015 38.198 38.198 0 0 0 8.877 6.168 32.92 32.92 0 0 0 2.965 1.314c.358.137.639.235.83.299l.218.07.054.016.013.004.004.001v.001a.299.299 0 0 1 .203.371z"/></g><path fill="#6366F1" d="M0-25c13.797 0 25 11.203 25 25S13.797 25 0 25-25 13.797-25 0s11.203-25 25-25z" style="display:block" transform="rotate(-36 83.593 -20.37) scale(1.07)"/></g></svg>