<svg xmlns="http://www.w3.org/2000/svg" width="180" height="180" style="width:100%;height:100%;transform:translate3d(0,0,0);content-visibility:visible"><defs><clipPath id="a"><path d="M0 0h180v180H0z"/></clipPath></defs><g clip-path="url(#a)"><g style="display:block"><path fill="#FFF" d="M152.867 172.099s-29.978-38.498-33.346-41.11c-3.368-2.613-22.023-17.945-18.019-23.084 3.824-4.909 14.981 8.944 21.206 12.132 4.962 2.543 10.129-.422 20.923-7.723 8.088-5.471 10.462-6.88 11.901-5.037 2.525 3.239-8.135 7.189-7.41 14.639 1.033 10.626 31.774 32.858 31.774 32.858"/><path fill="#131021" d="M152.867 172.399a.296.296 0 0 1-.236-.115c-.3-.385-29.993-38.499-33.293-41.059-.178-.138-17.762-13.85-18.66-21.018-.124-.991.073-1.827.587-2.487.527-.675 1.21-1.059 2.034-1.14 3.069-.307 7.616 3.631 12.025 7.433 2.795 2.411 5.436 4.689 7.521 5.757 4.773 2.445 9.697-.319 20.618-7.705 8.048-5.444 10.673-7.066 12.305-4.974 1.317 1.689-.442 3.479-2.479 5.551-2.338 2.38-5.248 5.341-4.868 9.245 1.008 10.371 31.344 32.421 31.651 32.643a.3.3 0 1 1-.351.486c-.078-.055-7.787-5.644-15.523-12.462-10.43-9.189-15.938-16.124-16.375-20.608-.406-4.184 2.612-7.256 5.038-9.725 2.125-2.162 3.379-3.549 2.435-4.76-1.235-1.578-3.418-.364-11.497 5.1-11.129 7.528-16.166 10.337-21.228 7.742-2.149-1.1-4.815-3.4-7.64-5.835-4.314-3.72-8.779-7.546-11.574-7.292-.662.066-1.191.365-1.619.913-.418.537-.57 1.206-.465 2.043.72 5.746 13.549 16.831 18.432 20.619 3.359 2.605 32.174 39.59 33.398 41.164a.3.3 0 0 1-.236.484z"/></g><g style="display:block"><path fill="#FFF" d="M126.535 131.408s-8.363-19.811-4.346-22.017c3.86-2.121 18.075 17.692 18.862 34.175"/><path fill="#131021" d="M141.051 143.866a.3.3 0 0 1-.301-.284c-.677-14.195-11.424-30.735-16.544-33.602-.557-.311-1.338-.623-1.873-.327-3.1 1.703 2.18 16.196 4.477 21.638a.3.3 0 0 1-.553.232c-.02-.049-2.115-5.025-3.689-10.209-2.186-7.193-2.357-11.178-.524-12.185.623-.343 1.449-.233 2.454.329 5.355 2.998 16.154 19.457 16.852 34.095a.298.298 0 0 1-.284.313h-.015z"/><path fill="#FFF" d="M134.498 122.504c1.612-10.599 4.448-15.167 7.226-20.703 1.581-3.15 1.037-9.484-2.897-7.552-8.281 4.068-11.192 18.276-11.192 18.276l6.863 9.979z"/><path fill="#131021" d="M134.497 122.804a.298.298 0 0 1-.247-.13l-6.862-9.979a.298.298 0 0 1-.047-.23c.12-.586 3.035-14.399 11.353-18.485 1.534-.756 2.49-.279 3.017.255 1.524 1.538 1.399 5.471.28 7.702-.317.631-.636 1.251-.952 1.868-2.48 4.835-4.824 9.402-6.245 18.744a.3.3 0 0 1-.297.255zm-6.542-10.342 6.362 9.251c1.446-8.939 3.751-13.433 6.189-18.182.315-.616.633-1.233.948-1.864 1.026-2.043 1.149-5.68-.169-7.01-.566-.572-1.35-.619-2.327-.138-7.647 3.756-10.691 16.545-11.003 17.943z"/><path fill="#FFF" d="M134.496 122.505c.377-7.16 8.281-25.65 10.706-22.654 2.863 3.538-5.137 20.185-5.137 20.185"/><path fill="#131021" d="M134.497 122.805h-.016a.3.3 0 0 1-.284-.315c.399-7.557 7.154-22.277 9.995-23.2.487-.157.924-.024 1.244.372 2.949 3.644-4.769 19.818-5.099 20.504a.3.3 0 0 1-.541-.259c2.202-4.583 7.425-17.086 5.174-19.868-.166-.205-.345-.256-.592-.178-2.791.906-9.239 16.154-9.582 22.66a.3.3 0 0 1-.299.284z"/><path fill="#131021" d="M137.731 121.767a.3.3 0 0 1-.17-.547c.164-.113 4.051-2.764 7.298-1.895a.3.3 0 0 1-.154.58c-2.968-.792-6.765 1.783-6.804 1.809a.297.297 0 0 1-.17.053z"/><path fill="#B4B7C8" d="M140.676 156.579s14.307-10.467 21.491-16.252l7.623 6.583s-15.449 13.865-21.558 19.259l-7.556-9.59z"/><path fill="#131021" d="m148.232 166.469-.027-.002a.3.3 0 0 1-.208-.112l-7.557-9.591a.297.297 0 0 1 .059-.427c.142-.104 14.382-10.529 21.479-16.243a.302.302 0 0 1 .385.006l7.624 6.583a.3.3 0 0 1 .004.45c-.155.139-15.52 13.928-21.561 19.26a.297.297 0 0 1-.198.076zm-7.129-9.832 7.168 9.097c5.749-5.081 19.061-17.021 21.065-18.821l-7.176-6.196c-6.639 5.328-19.131 14.508-21.057 15.92z"/><path fill="#131021" d="m140.685 156.492 7.635 9.683-1.936 1.536a2.694 2.694 0 0 1-3.786-.435l-4.284-5.459a2.697 2.697 0 0 1 .435-3.788l1.936-1.537z"/></g><path fill="#B4B7C8" d="M-10.823 10.617c5.86 5.979 15.457 6.074 21.434.212 5.977-5.863 6.072-15.463.212-21.444-5.86-5.98-15.456-6.076-21.434-.212-5.977 5.862-6.072 15.463-.212 21.444z" style="display:block" transform="translate(38.953 125.533)"/><g style="display:block"><path fill="#FFF" d="m42.016 156.751-12.869-4.016-12.867-4.016 9.908-9.142 9.912-9.138 2.956 13.154 2.96 13.158z"/><path fill="#131021" d="m42.421 157.192-26.726-8.341 20.582-18.985 6.144 27.326zm-25.556-8.605 24.744 7.723-5.688-25.297-19.056 17.574z"/></g><g style="display:block"><path fill="#FFF" d="m28.711 46.903 9.008 8.154 4.259 13.05-13.401-2.94-9.011-8.155 9.145-10.109z"/><path fill="#131021" d="M41.978 68.407a.288.288 0 0 1-.065-.007l-13.401-2.94a.305.305 0 0 1-.136-.07l-9.01-8.155a.3.3 0 0 1-.021-.424l9.144-10.109a.3.3 0 0 1 .207-.099.29.29 0 0 1 .216.078l9.01 8.154c.039.035.068.08.084.129l4.257 13.05a.301.301 0 0 1-.285.393zm-13.259-3.516 12.811 2.811-4.07-12.476-8.728-7.899-8.741 9.665 8.728 7.899z"/><path fill="#131021" d="M41.977 68.404a.295.295 0 0 1-.202-.078l-8.832-7.995a.298.298 0 0 1-.02-.423.3.3 0 0 1 .423-.021l8.832 7.995a.3.3 0 0 1-.201.522z"/></g><g style="display:block"><path fill="#131021" d="m12.518 32.224 12.537 11.351-9.141 10.107L3.376 42.331l9.142-10.107z"/><path fill="#131021" d="M15.912 53.98a.296.296 0 0 1-.2-.077L3.175 42.552a.3.3 0 0 1-.021-.423l9.14-10.106a.306.306 0 0 1 .209-.099.334.334 0 0 1 .215.078l12.537 11.35a.3.3 0 0 1 .022.423l-9.141 10.107a.301.301 0 0 1-.208.098h-.016zM3.8 42.309l12.091 10.948 8.739-9.662-12.091-10.947L3.8 42.309z"/><path fill="#FFF" d="m25.056 43.573 3.687 3.339-9.142 10.107-3.688-3.338 9.143-10.108z"/><path fill="#131021" d="M19.6 57.319a.295.295 0 0 1-.2-.078l-3.687-3.338a.3.3 0 0 1-.022-.423l9.142-10.108a.306.306 0 0 1 .207-.099c.087 0 .157.024.216.078l3.687 3.338a.3.3 0 0 1 .022.423L19.822 57.22a.298.298 0 0 1-.206.099H19.6zm-3.262-3.66 3.241 2.936 8.739-9.663-3.241-2.935-8.739 9.662z"/><path fill="#FFF" d="M28.639 57.748a1.493 1.493 0 1 1 .557-2.934 1.493 1.493 0 0 1-.557 2.934z"/><path fill="#131021" d="M28.922 58.074a1.796 1.796 0 0 1-1.015-3.276 1.795 1.795 0 0 1 2.02 2.965 1.78 1.78 0 0 1-1.005.311zm-.008-2.987c-.237 0-.468.071-.668.208a1.195 1.195 0 0 0 1.343 1.972 1.195 1.195 0 0 0-.675-2.18z"/></g><g style="display:block"><path fill="#131021" d="M161.063 26.831a.298.298 0 0 1-.28-.193c-4.931-13.044-13.768-18.429-13.857-18.481a.3.3 0 0 1 .307-.516c.091.054 9.107 5.547 14.11 18.785a.298.298 0 0 1-.28.405zM157.001 27.608a.3.3 0 0 1-.274-.178c-3.821-8.576-9.613-13.386-9.671-13.434a.3.3 0 1 1 .381-.464c.058.049 5.957 4.941 9.838 13.654a.3.3 0 0 1-.274.422z"/></g><g style="display:block"><path fill="#B4B7C8" d="m162.496 66.414-3.408-3.567s5.453-.567 6.198-2.959c.698-2.241-2.996-6.745-1.551-9.122 1.239-2.039 9.672-3.99 9.672-3.99l2.687 2.443s-7.022 1.397-7.869 3.662c-1.144 3.068 2.641 6.07 2.133 8.062-.742 2.926-7.862 5.471-7.862 5.471z"/><path fill="#131021" d="M162.496 66.714a.3.3 0 0 1-.217-.093l-3.408-3.568a.296.296 0 0 1-.064-.309.299.299 0 0 1 .25-.196c.052-.005 5.265-.573 5.943-2.75.282-.904-.266-2.306-.846-3.789-.761-1.948-1.548-3.962-.675-5.4 1.289-2.123 9.511-4.045 9.861-4.126a.302.302 0 0 1 .269.07l2.687 2.443a.299.299 0 0 1-.144.516c-1.907.38-7 1.745-7.645 3.474-.606 1.622.313 3.29 1.124 4.762.65 1.182 1.266 2.297 1.019 3.268-.773 3.046-7.756 5.574-8.053 5.681a.29.29 0 0 1-.101.017zm-2.784-3.649 2.864 2.998c1.103-.417 6.861-2.707 7.491-5.194.19-.741-.37-1.757-.961-2.832-.873-1.585-1.863-3.381-1.162-5.261.755-2.02 5.787-3.332 7.517-3.728l-2.139-1.944c-2.421.572-8.389 2.267-9.33 3.817-.719 1.184.013 3.059.721 4.871.619 1.583 1.204 3.079.859 4.185-.648 2.083-4.383 2.859-5.86 3.088z"/></g><g style="display:block"><path fill="#FFF" d="M77.963 16.998h40.958c8.671 0 15.7 7.03 15.7 15.701V73.69c0 8.671-7.029 15.702-15.7 15.702H77.963c-8.671 0-15.7-7.031-15.7-15.702V32.699c0-8.671 7.029-15.701 15.7-15.701z"/><path fill="#131021" d="M118.921 89.691H77.963c-8.823 0-16-7.177-16-15.999V32.699c0-8.822 7.177-16 16-16h40.958c8.822 0 16 7.178 16 16v40.993c0 8.822-7.178 15.999-16 15.999zM77.963 17.299c-8.492 0-15.4 6.909-15.4 15.4v40.993c0 8.491 6.908 15.399 15.4 15.399h40.958c8.491 0 15.4-6.908 15.4-15.399V32.699c0-8.491-6.909-15.4-15.4-15.4H77.963z"/></g><g style="display:block"><path fill="#6266F0" d="M110.935 53.183c0 3.26-2.641 5.906-5.895 5.906-3.253 0-5.895-2.646-5.895-5.906s2.642-5.906 5.895-5.906c3.254 0 5.895 2.646 5.895 5.906zM99.144 35.395a1.2 1.2 0 0 1 1.2-1.2h4.696c3.253 0 5.894 2.646 5.894 5.907 0 3.259-2.641 5.905-5.894 5.905h-4.696a1.2 1.2 0 0 1-1.2-1.2v-9.412zM91.986 72.159c3.254 0 5.895-2.646 5.895-5.905v-4.707a1.2 1.2 0 0 0-1.201-1.2h-4.694c-3.254 0-5.897 2.646-5.897 5.907a5.904 5.904 0 0 0 5.897 5.905zM86.09 53.183c0-3.26 2.641-5.906 5.896-5.906h4.694a1.2 1.2 0 0 1 1.2 1.201v9.411a1.2 1.2 0 0 1-1.2 1.2h-4.694c-3.255 0-5.896-2.646-5.896-5.906zM86.09 40.101c0-3.26 2.641-5.906 5.896-5.906h4.694a1.2 1.2 0 0 1 1.2 1.2v9.412a1.2 1.2 0 0 1-1.2 1.2h-4.694c-3.255 0-5.896-2.646-5.896-5.906z"/></g></g></svg>