<svg xmlns="http://www.w3.org/2000/svg" width="180" height="180" style="width:100%;height:100%;transform:translate3d(0,0,0);content-visibility:visible"><defs><clipPath id="a"><path d="M0 0h180v180H0z"/></clipPath></defs><g clip-path="url(#a)"><path fill="#131021" d="M29.952-12.293c-.336-.249-.775-.182-1.156-.029.325-.811.574-1.537.744-2.186.521-1.596.5-2.719-.059-3.403-.275-.334-.635-.506-1.001-.588a1.178 1.178 0 0 0-.103-.022c-.027-.005-.052-.008-.079-.014a1.366 1.366 0 0 0-.161-.018l-.041-.002c-.052-.003-.102-.007-.155-.007h-.184c-.451.018-.799.118-.832.126a6.782 6.782 0 0 0-.957.316 2.627 2.627 0 0 0-.258-1.091c-.225-.457-.562-.767-1.004-.924-.778-.319-1.772-.045-2.655.379-.445.208-.755.405-.793.429-.182.108-.351.215-.504.317.273-.887.226-1.5-.146-1.86-.752-.729-2.436.072-2.626.166-.474.19-1.004.446-1.595.776-1.95 1.089-4.283 3.658-6.988 6.638C5.344-8.824.297-3.268-5.894.096c-3.984 2.162-8.581 1.841-12.612-.879-2.385-1.614-4.531-4.245-5.894-6.835l-.537.282c1.417 2.842 3.82 5.525 6.41 7.275 4.231 2.857 8.736 2.984 12.928.704C.687-2.772 5.772-8.371 9.858-12.872c2.667-2.939 4.971-5.475 6.83-6.511 2.48-1.385 3.188-1.113 3.378-.931.24.231.198.784.012 1.363a8.345 8.345 0 0 1-.287.693l-.322.64C17.107-13.275 9.659-5.319 9.58-5.234l.455.423c.34-.362 8.287-8.854 10.286-13.113.287-.234.744-.567 1.274-.884 0 0 .02-.01.043-.025.179-.105.366-.209.557-.306.591-.289 1.504-.634 2.204-.444.003 0 .006.001.006.004.044.012.082.031.123.046.447.219.72.752.811 1.592-.109 3.461-6.407 10.316-11.366 15.383l.446.436c7.418-7.58 11.049-12.372 11.499-15.298a6.19 6.19 0 0 1 1.182-.422c.188-.044.375-.079.563-.094a2.4 2.4 0 0 1 .638.03h.005c.01.003.019.006.027.006.182.044.346.123.474.243.308.286.626 1.03.135 2.928-.261.806-.69 1.824-1.376 3.109C24.501-5.875 18.383-.403 18.322-.348l.412.466c.062-.056 6.078-5.434 9.236-11.182l.366-.288c.018-.013.036-.025.055-.041.382-.282.973-.566 1.187-.405.12.09.638.749-1.016 4.969-1.531 3.907-5.715 10.325-11.61 15.852C12.015 13.65 4.053 19.377-5.847 20.39c-5.633.576-16.277.272-24.264-8.247-.123-.132-.213-.238-.333-.373-.143.148-.414.473-.414.473.127.14.167.191.297.327 8.168 8.713 19.031 9.029 24.778 8.44 7.433-.761 13.782-4.123 18.61-7.72a52.49 52.49 0 0 0 4.549-3.813C23.755 3.498 27.701-2.922 29.14-6.605c1.717-4.366 1.287-5.337.812-5.688z" style="display:block" transform="translate(147.419 114.823)"/><path fill="#131021" d="M30.444 11.772c-.12.135-.211.24-.334.371-7.986 8.52-18.627 8.824-24.263 8.247-9.9-1.013-17.86-6.739-22.799-11.365-5.896-5.529-10.079-11.946-11.61-15.857-1.654-4.219-1.136-4.88-1.015-4.968.213-.158.808.126 1.185.406.018.015.038.026.056.041l.365.286C-24.811-5.319-18.796.06-18.734.116l.412-.465c-.061-.057-6.179-5.525-9.244-11.274-.685-1.284-1.118-2.302-1.376-3.108-.492-1.898-.173-2.642.135-2.929a1.042 1.042 0 0 1 .5-.249h.006c.22-.044.442-.044.638-.029.185.018.375.05.562.094a6.11 6.11 0 0 1 1.183.422c.454 2.928 4.081 7.716 11.499 15.297l.445-.433c-4.962-5.069-11.259-11.924-11.365-15.386.091-.84.364-1.372.811-1.592.041-.017.079-.035.123-.046.003 0 .006 0 .006-.003.7-.19 1.613.155 2.204.445a10.512 10.512 0 0 1 1.874 1.214c1.999 4.259 9.948 12.754 10.287 13.113l.454-.424c-.079-.085-7.527-8.042-9.889-12.385l-.322-.637a8.959 8.959 0 0 1-.287-.694c-.187-.58-.231-1.132.012-1.364.19-.182.899-.453 3.378.931 1.859 1.036 4.163 3.573 6.83 6.512C-5.771-8.374-.686-2.776 5.599.639c4.195 2.28 8.697 2.154 12.928-.702 2.587-1.746 4.994-4.434 6.41-7.274l-.538-.285c-1.362 2.59-3.504 5.224-5.893 6.836-4.031 2.722-8.627 3.044-12.612.878C-.297-3.271-5.344-8.828-9.399-13.293c-2.705-2.976-5.038-5.549-6.988-6.637a13.34 13.34 0 0 0-1.595-.776c-.19-.093-1.873-.898-2.626-.167-.372.36-.418.975-.146 1.862a16.345 16.345 0 0 0-.504-.32c-.038-.023-.348-.222-.793-.427-.884-.421-1.877-.699-2.655-.377-.442.158-.779.468-1.004.925a2.604 2.604 0 0 0-.258 1.091 6.913 6.913 0 0 0-.957-.316c-.032-.009-.381-.108-.832-.126h-.184c-.053 0-.105.003-.155.006-.015 0-.026.003-.041.003a8.792 8.792 0 0 1-.161.017c-.027.003-.053.009-.079.015a1.254 1.254 0 0 0-.103.021c-.366.082-.729.251-1.001.587-.559.686-.579 1.809-.058 3.405.172.649.418 1.375.743 2.185-.381-.151-.82-.222-1.156.03-.475.35-.908 1.323.805 5.695 1.44 3.681 5.386 10.101 11.765 16.081a52.692 52.692 0 0 0 4.55 3.812c4.827 3.597 11.176 6.959 18.609 7.72 5.75.588 16.61.276 24.778-8.439.129-.138.17-.188.296-.327.009-.006-.263-.332-.407-.478z" style="display:block" transform="translate(33.089 114.831)"/><path fill="#B4B7C8" d="M41.228 4.459c-6.963-27.1-38.4-24.285-38.675-24.258 0 0-.143.088-.375.207a3.893 3.893 0 0 1-4-.216s-32.412-2.956-39.406 24.26h15.123l-4.504 18.306 58.998.006-3.183-18.305h16.022z" style="display:block" transform="translate(90.712 109.149)"/><g style="display:block"><path fill="#131021" d="m90.131 75.122-3.077.056 1.544-8.306.658.124-1.394 7.497 2.258-.041.011.67z"/><path fill="#131021" d="M103.391 72.477a12.305 12.305 0 0 0-1.33-4.53 12.257 12.257 0 0 0-7.224-6.085 12.266 12.266 0 0 0-9.412.805 12.255 12.255 0 0 0-6.086 7.222 12.245 12.245 0 0 0 .805 9.409 12.258 12.258 0 0 0 8.074 6.319v4.75h.67v-4.606c.738.134 1.475.201 2.208.201.734 0 1.464-.068 2.177-.196v4.601h.67v-4.741c3.766-.898 7.027-3.544 8.572-7.313a3.018 3.018 0 0 0 2.705-2.095 3.015 3.015 0 0 0-1.829-3.741zm1.191 3.535c-.372 1.173-1.399 1.881-2.576 1.609l-.19.621c-2.342 5.434-8.484 8.329-14.242 6.502a11.585 11.585 0 0 1-6.833-5.752 11.588 11.588 0 0 1-.761-8.897 11.586 11.586 0 0 1 5.755-6.831 11.622 11.622 0 0 1 5.358-1.314c1.185 0 2.38.185 3.545.553a11.59 11.59 0 0 1 6.832 5.754 11.61 11.61 0 0 1 1.236 4.056 3.608 3.608 0 0 0-.312-.024c.072.223.089.457.039.673a2.342 2.342 0 0 1 2.149 3.05z"/><path fill="#131021" d="M101.652 74.293c-.91.737-.838 2.164-.835 2.225l.67-.039c0-.012-.049-1.15.589-1.665.366-.296.913-.348 1.63-.149l.179-.646c-.942-.258-1.691-.165-2.233.274z"/></g><path fill="#131021" d="M-1.342 2.217a7.717 7.717 0 0 1-.396.076l-.108-.661C-.578 1.424.241.965.59.265 1.094-.742.461-1.965.455-1.98l.592-.313c.032.062.799 1.534.146 2.851-.41.822-1.262 1.381-2.535 1.659z" style="display:block" transform="translate(93.295 75.306)"/><path fill="#131021" d="M9.138 12.465c-.538.336-1.229-.093-1.15-.725.099-.796.111-2.088-.144-4.174-.626-5.151-12.035 2.211-17.966-5.112-5.93-7.321 6.309-15.256 8.478-11.876 2.17 3.377-1.393 4.387.978 5.2 2.371.813 16.718-.116 14.499 12.26.003 0-2.611 3.125-4.695 4.427z" style="display:block" transform="translate(89.539 63.503)"/><g style="display:block"><path fill="#131021" d="m90.161 147.915-35.952 12.71 35.952 12.709 35.952-12.709-35.952-12.71z"/><path fill="#131021" d="m126.213 160.907-36.052 12.746-36.052-12.746.201-.566 35.851 12.674 35.852-12.674.2.566z"/></g><g style="display:block"><path fill="#E1E4F0" d="m90.161 132.168-35.952 12.711 35.952 12.709 35.952-12.709-35.952-12.711z"/><path fill="#131021" d="m126.213 145.163-36.052 12.745-36.052-12.745.201-.565 35.851 12.674 35.852-12.674.2.565z"/></g><g style="display:block"><path fill="#FFF" d="m90.161 116.427-35.952 12.71 35.952 12.709 35.952-12.709-35.952-12.71z"/><path fill="#131021" d="m126.213 129.418-36.052 12.745-36.052-12.745.201-.565 35.851 12.674 35.852-12.674.2.565z"/></g><path fill="#6266F0" d="M2.87 4.495a5.335 5.335 0 0 1-7.36-1.63 5.323 5.323 0 0 1 1.62-7.36 5.347 5.347 0 0 1 7.37 1.63c1.58 2.48.85 5.78-1.63 7.36z" style="display:block" transform="translate(172.38 50.035)"/><path fill="#6266F0" d="M3.765 3.77a5.335 5.335 0 0 1-7.54 0 5.335 5.335 0 0 1 0-7.54 5.335 5.335 0 0 1 7.54 0 5.317 5.317 0 0 1 0 7.54z" style="display:block" transform="translate(149.345 31.09)"/><path fill="#6266F0" d="M1.01 5.24a5.344 5.344 0 0 1-6.25-4.23c-.55-2.9 1.34-5.69 4.23-6.24C1.89-5.79 4.68-3.9 5.24-1a5.338 5.338 0 0 1-4.23 6.24z" style="display:block" transform="translate(122.12 16.97)"/><path fill="#6266F0" d="M5.155 1.395a5.333 5.333 0 0 1-6.54 3.75 5.32 5.32 0 0 1-3.76-6.53 5.33 5.33 0 0 1 6.54-3.76c2.84.77 4.52 3.7 3.76 6.54z" style="display:block" transform="translate(89.965 11.675)"/><path fill="#131021" d="M5.21 1.11a5.317 5.317 0 0 1-6.32 4.1 5.331 5.331 0 0 1-4.11-6.32c.619-2.88 3.45-4.72 6.33-4.1 2.88.61 4.72 3.44 4.1 6.32z" style="display:block" transform="translate(57.82 16.97)"/><path fill="#131021" d="M5.265.85a5.332 5.332 0 0 1-6.12 4.41 5.334 5.334 0 0 1-4.41-6.11 5.337 5.337 0 0 1 6.12-4.41c2.91.47 4.88 3.21 4.41 6.11z" style="display:block" transform="translate(30.585 31.09)"/><path fill="#131021" d="M5.21 1.15A5.332 5.332 0 0 1-1.15 5.2a5.331 5.331 0 0 1-4.06-6.35 5.338 5.338 0 0 1 6.36-4.06c2.88.64 4.69 3.48 4.06 6.36z" style="display:block" transform="translate(7.54 50.04)"/></g></svg>