<svg xmlns="http://www.w3.org/2000/svg" width="180" height="180" style="width:100%;height:100%;transform:translate3d(0,0,0);content-visibility:visible"><defs><clipPath id="a"><path d="M0 0h180v180H0z"/></clipPath></defs><g clip-path="url(#a)"><g style="display:block"><path fill="#FFF" d="M145.021 54.539c15.369 20.167 17.159 47.397 4.56 69.371-14.119 24.623-43.267 36.419-70.123 29.337l2.593-.699a2.965 2.965 0 0 0 2.086-3.639 2.964 2.964 0 0 0-3.633-2.097l-11.464 3.091a2.966 2.966 0 0 0-2.088 3.639l3.101 11.497a2.966 2.966 0 0 0 3.634 2.096 2.965 2.965 0 0 0 2.086-3.639l-1.506-5.59a68.351 68.351 0 0 0 43.411-.377l-.097-.283.097.283a68.345 68.345 0 0 0 37.043-30.655c6.856-11.957 9.94-25.525 8.918-39.235-.997-13.379-5.808-26.07-13.911-36.702a2.96 2.96 0 0 0-4.154-.561 2.974 2.974 0 0 0-.553 4.163z"/><path fill="#131021" d="M72.918 167.537a3.277 3.277 0 0 1-3.156-2.421l-3.099-11.496a3.25 3.25 0 0 1 .32-2.481 3.243 3.243 0 0 1 1.979-1.527l11.463-3.09a3.235 3.235 0 0 1 2.478.324 3.272 3.272 0 0 1-.775 5.992l-1.485.399c26.802 6.547 54.908-5.464 68.676-29.477 12.54-21.868 10.759-48.968-4.537-69.04a3.277 3.277 0 0 1 .609-4.582 3.236 3.236 0 0 1 2.413-.641 3.235 3.235 0 0 1 2.162 1.258c8.139 10.679 12.97 23.426 13.971 36.861 1.027 13.771-2.071 27.398-8.956 39.408a68.652 68.652 0 0 1-36.923 30.69h.001l-.241.084-.042.014-.284.097c-13.79 4.678-28.952 4.836-42.793.451l1.364 5.057a3.272 3.272 0 0 1-2.299 4.008 3.247 3.247 0 0 1-.846.112zm8.36-20.529c-.232 0-.466.031-.697.094l-11.463 3.091a2.634 2.634 0 0 0-1.614 1.245 2.652 2.652 0 0 0-.262 2.026l3.099 11.496a2.668 2.668 0 0 0 3.267 1.885 2.67 2.67 0 0 0 1.876-3.272l-1.652-6.125.527.172c13.955 4.549 29.303 4.414 43.221-.375a68.052 68.052 0 0 0 36.881-30.52c6.825-11.905 9.895-25.413 8.879-39.064-.994-13.32-5.783-25.956-13.85-36.543a2.654 2.654 0 0 0-1.766-1.027 2.635 2.635 0 0 0-1.967.523 2.677 2.677 0 0 0-.499 3.743c15.444 20.264 17.242 47.624 4.582 69.702-14.094 24.58-43.066 36.698-70.459 29.477l-1.088-.287 3.679-.991a2.67 2.67 0 0 0 1.876-3.271 2.66 2.66 0 0 0-1.245-1.622 2.648 2.648 0 0 0-1.325-.357z"/></g><g style="display:block"><path fill="#FFF" d="M63.337 17.995a68.647 68.647 0 0 0-38.594 28.882 68.601 68.601 0 0 0 1.074 75.752 2.972 2.972 0 0 0 4.911-3.346 62.672 62.672 0 0 1-.982-69.201c15.206-23.731 44.6-34.17 70.984-26.222l-2.13.467a2.971 2.971 0 1 0 1.271 5.805l11.394-2.496a2.97 2.97 0 0 0 2.267-3.538l-2.495-11.393a2.971 2.971 0 1 0-5.805 1.271l1.213 5.54c-13.752-5.104-28.882-5.666-43.108-1.521z"/><path fill="#131021" d="M28.279 124.228c-.204 0-.41-.02-.615-.059a3.246 3.246 0 0 1-2.095-1.371A68.77 68.77 0 0 1 15.164 98.68c-3.938-17.978-.626-36.432 9.326-51.964a68.945 68.945 0 0 1 38.763-29.009c13.979-4.072 29.15-3.593 42.782 1.339l-1.096-5.006a3.254 3.254 0 0 1 .44-2.464 3.253 3.253 0 0 1 2.055-1.431 3.25 3.25 0 0 1 2.465.441 3.248 3.248 0 0 1 1.431 2.055l2.495 11.393a3.246 3.246 0 0 1-.441 2.464 3.252 3.252 0 0 1-2.054 1.431l-11.395 2.496a3.273 3.273 0 0 1-3.895-2.496 3.275 3.275 0 0 1 2.496-3.895l.979-.215c-26.296-7.384-54.745 3.372-69.516 26.425a62.372 62.372 0 0 0 .977 68.87 3.274 3.274 0 0 1-2.697 5.114zM63.421 18.283a68.35 68.35 0 0 0-38.426 28.756c-9.866 15.397-13.149 33.692-9.245 51.512a68.174 68.174 0 0 0 10.316 23.909c.401.59 1.008.988 1.709 1.12a2.674 2.674 0 0 0 2.705-4.129 62.968 62.968 0 0 1-.986-69.53c15.126-23.608 44.454-34.443 71.323-26.348l1.105.333-3.257.714a2.674 2.674 0 0 0-2.039 3.181 2.673 2.673 0 0 0 3.18 2.038l11.395-2.496a2.656 2.656 0 0 0 1.678-1.168 2.658 2.658 0 0 0 .36-2.013l-2.495-11.393a2.654 2.654 0 0 0-1.168-1.677 2.66 2.66 0 0 0-2.013-.361 2.656 2.656 0 0 0-1.678 1.169 2.66 2.66 0 0 0-.36 2.012l1.33 6.076-.515-.191c-13.645-5.064-28.889-5.602-42.919-1.514z"/></g><g style="display:block"><path fill="#6266F0" d="m118.13 95.539-.031.202.178.103 7.491 4.327-9.849 17.08-7.491-4.326-.177-.102-.16.127a27.847 27.847 0 0 1-7.212 4.183l-.19.073v8.879H80.991v-8.86l-.191-.073a27.523 27.523 0 0 1-7.211-4.182l-.16-.129-.178.103-7.491 4.326-9.868-17.099 7.491-4.327.178-.103-.032-.202a27.712 27.712 0 0 1-.303-4.183c0-1.425.114-2.813.304-4.185l.028-.2-.175-.102-7.491-4.327 9.849-17.08 7.491 4.327.177.102.16-.127a27.863 27.863 0 0 1 7.212-4.183l.191-.074v-8.86h19.697V65.526l.19.074a27.853 27.853 0 0 1 7.213 4.183l.161.127.176-.101 7.492-4.328 9.848 17.08-7.491 4.328-.178.103.031.201c.209 1.37.323 2.759.323 4.184v.004a25.255 25.255 0 0 1-.304 4.158z"/><path fill="#131021" d="M100.988 126.384H80.69v-8.954a27.678 27.678 0 0 1-7.289-4.227l-7.752 4.477-10.167-17.619 7.75-4.478a27.829 27.829 0 0 1-.306-4.227c0-1.356.1-2.739.306-4.227l-7.75-4.477 10.149-17.6 7.75 4.477a28.054 28.054 0 0 1 7.29-4.227v-8.955h20.297v8.974a28.072 28.072 0 0 1 7.291 4.227l7.751-4.477 10.148 17.6-7.75 4.477a27.9 27.9 0 0 1 .325 4.228 25.346 25.346 0 0 1-.307 4.207l7.75 4.478-10.147 17.601-7.751-4.478h-.001a28.116 28.116 0 0 1-7.289 4.228v8.972zm-19.698-.6h19.098v-8.783l.381-.149c2.551-1 4.951-2.391 7.134-4.136l.32-.254 7.585 4.379 9.55-16.562-7.588-4.382.062-.403c.221-1.444.32-2.79.301-4.11 0-1.386-.104-2.74-.319-4.145l-.063-.405 7.588-4.383-9.549-16.56-7.585 4.381-.321-.256a27.48 27.48 0 0 0-7.135-4.137l-.38-.149v-8.783H81.271v8.764l-.381.149a27.474 27.474 0 0 0-7.134 4.137l-.32.256-7.585-4.381-9.55 16.56 7.582 4.379-.056.401a29.864 29.864 0 0 0-.302 4.144c0 1.461.098 2.815.3 4.138l.063.403-7.587 4.382 9.568 16.58 7.587-4.382.32.258a27.105 27.105 0 0 0 7.133 4.138l.381.147v8.764z"/></g><g style="display:block"><path fill="#FFF" d="M90.878 102.435c6.077 0 11.003-4.934 11.003-11.02 0-6.086-4.926-11.02-11.003-11.02s-11.003 4.934-11.003 11.02c0 6.086 4.926 11.02 11.003 11.02z"/><path fill="#131021" d="M80.175 91.308h-.6c0-6.183 5.119-11.214 11.41-11.214v.6c-5.96 0-10.81 4.762-10.81 10.614z"/></g><g style="display:block"><path fill="#B4B7C8" d="m21.734 145.356 4.773-2.114s-1.378 5.6.743 7.184c1.985 1.484 7.795-.581 9.652 1.691 1.592 1.949.531 10.99.531 10.99l-3.395 1.797s1.111-7.448-.847-9.087c-2.653-2.22-6.997.468-8.803-.74-2.654-1.771-2.654-9.721-2.654-9.721z"/><path fill="#131021" d="M34.039 165.204a.301.301 0 0 1-.297-.344c.302-2.027.756-7.558-.743-8.813-1.409-1.179-3.407-.858-5.167-.576-1.407.225-2.736.439-3.61-.145-2.756-1.838-2.787-9.639-2.787-9.97 0-.119.07-.227.178-.274l4.773-2.115a.294.294 0 0 1 .315.045.3.3 0 0 1 .098.301c-.013.055-1.307 5.426.631 6.873.807.604 2.405.554 4.092.507 2.212-.069 4.496-.133 5.613 1.234 1.654 2.025.64 10.841.596 11.215a.3.3 0 0 1-.158.231l-3.394 1.796a.302.302 0 0 1-.14.035zm-3.721-10.601c1.095 0 2.162.228 3.065.983 1.751 1.465 1.25 6.958 1.029 8.781l2.741-1.451c.292-2.596.732-9.123-.483-10.61-.93-1.138-3.066-1.074-5.13-1.014-1.8.053-3.494.103-4.47-.626-1.852-1.382-1.276-5.392-.98-6.912l-4.053 1.796c.023 1.216.25 7.764 2.518 9.277.678.456 1.894.258 3.181.051.834-.133 1.717-.275 2.582-.275z"/></g><g style="display:block"><path fill="#E1E4F0" d="m133.01 19.677 17.854 17.462 4.546-24.72-22.4 7.258z"/><path fill="#131021" d="M150.864 37.397a.258.258 0 0 1-.18-.074L132.829 19.86a.252.252 0 0 1-.07-.242.254.254 0 0 1 .171-.186l22.401-7.26a.252.252 0 0 1 .25.052c.068.06.1.15.083.24l-4.546 24.72a.256.256 0 0 1-.175.199.271.271 0 0 1-.079.013zM133.495 19.79l17.203 16.824 4.381-23.817-21.584 6.993z"/></g><path fill="#131021" d="M.001 7.602a7.603 7.603 0 1 0 0-15.204 7.603 7.603 0 1 0 0 15.204z" style="display:block" transform="translate(155.536 21.61)"/></g></svg>